<?xml version="1.0" encoding="UTF-8" standalone="no"?>
<svg
   xmlns:dc="http://purl.org/dc/elements/1.1/"
   xmlns:cc="http://creativecommons.org/ns#"
   xmlns:rdf="http://www.w3.org/1999/02/22-rdf-syntax-ns#"
   xmlns:svg="http://www.w3.org/2000/svg"
   xmlns="http://www.w3.org/2000/svg"
   xmlns:sodipodi="http://sodipodi.sourceforge.net/DTD/sodipodi-0.dtd"
   xmlns:inkscape="http://www.inkscape.org/namespaces/inkscape"
   version="1.1"
   x="0px"
   y="0px"
   viewBox="0 0 96 96"
   id="svg10"
   sodipodi:docname="businessman.svg"
   width="96"
   height="96"
   inkscape:version="0.92.4 (5da689c313, 2019-01-14)">
  <metadata
     id="metadata16">
    <rdf:RDF>
      <cc:Work
         rdf:about="">
        <dc:format>image/svg+xml</dc:format>
        <dc:type
           rdf:resource="http://purl.org/dc/dcmitype/StillImage" />
        <dc:title></dc:title>
      </cc:Work>
    </rdf:RDF>
  </metadata>
  <defs
     id="defs14" />
  <sodipodi:namedview
     pagecolor="#ffffff"
     bordercolor="#666666"
     borderopacity="1"
     objecttolerance="10"
     gridtolerance="10"
     guidetolerance="10"
     inkscape:pageopacity="0"
     inkscape:pageshadow="2"
     inkscape:window-width="1712"
     inkscape:window-height="1259"
     id="namedview12"
     showgrid="false"
     inkscape:zoom="1.888"
     inkscape:cx="56.355932"
     inkscape:cy="62.5"
     inkscape:window-x="0"
     inkscape:window-y="0"
     inkscape:window-maximized="0"
     inkscape:current-layer="svg10" />
  <g
     transform="matrix(1.0222218,0,0,1.0222218,-3.11109,-976.63647)"
     id="g4">
    <path
       d="m 54.125,957.36216 c -4,1.00279 -8,2.00557 -12,4.01114 v -3.00835 c -3,2.00557 -7,4.01114 -10,8.02228 l -2,-2.00557 c 0,6.67067 0.63574,12.46776 2.5625,18.2695 -1.16354,-0.33543 -1.96382,0.54904 -2.46875,1.28487 -0.71081,2.13837 -0.31433,4.38844 0.59375,6.36142 0.66911,1.45378 1.61858,2.79335 2.8125,3.88579 L 33,978.26397 c -0.0437,-0.80666 0.45085,-1.61587 1.1875,-1.9429 5.27209,-2.1456 11.41489,0.10807 15.59375,2.66365 4.97394,-2.23917 11.2922,-4.69652 16.03125,-2.63231 0.74691,0.33066 1.24424,1.15749 1.1875,1.97423 l -0.3125,4.07382 c 2.63235,-6.68982 3.4375,-13.27904 3.4375,-20.02437 l -4,1.00278 2,-3.00835 -5,1.00278 3,-3.00835 c -4,0 -6,2.00557 -13,2.00557 z M 35,978.16996 l 1,25.06964 c 1.78718,2.3896 3.92588,4.433 6,6.1107 v 3.0711 l -1.4375,1.4415 c -0.20167,-1.0272 -0.38938,-1.9496 -0.5625,-2.601 l -4.90625,2.601 -1.71875,11.25 5.3125,1.5355 c 1.25687,0.3783 1.80312,2.1807 0.96875,3.1964 l -4.25,5.1079 4.96875,12.4095 h 5.5625 c -0.92843,-9.6779 -3.01694,-19.8898 -4.49995,-28.7048 l 3.96875,-3.9798 c 0.37122,-0.368 0.58957,-0.8866 0.59375,-1.4101 v -1.0028 c 3,0 4.9555,0.061 8,0 v 1.0028 c -0.004,0.5192 0.20251,1.037 0.5625,1.4101 l 4.09375,4.1052 c -2.02411,9.5965 -3.34916,18.8647 -4.625,28.5794 h 5.6875 l 4.96875,-12.4408 -4.21875,-5.0766 c -0.83437,-1.0157 -0.28812,-2.8181 0.96875,-3.1964 l 5.28125,-1.5042 -1.6875,-11.2186 L 60,1011.2619 c -0.1252,0.6157 -0.32921,1.7402 -0.5,2.695 l -1.5,-1.5042 v -3.4471 c 1.66898,-1.6107 3.33102,-3.5345 5,-5.766 l 2,-25.06964 c -4.3669,-2.00557 -10.91295,1.00283 -15.375,3.00836 -4.79204,-2.6103 -9.78234,-5.05968 -14.625,-3.00836 z m 31.625,4.79452 -0.9375,11.78273 c 1.51087,-1.18257 2.71153,-2.73674 3.5,-4.44986 0.90808,-1.97298 1.27331,-4.22305 0.5625,-6.36142 -0.75,-1.75483 -1.75101,-1.64661 -3.125,-0.97145 z m -21.8125,17.51742 c 3.53542,-2e-4 7.15244,0 10.1875,0 0.52358,10e-5 0.99995,0.4778 1,1.0028 -0.16404,1.4371 -1.09717,2.0638 -2.1875,2.6323 -1.11537,0.4474 -2.4625,0.6268 -3.8125,0.6268 -1.35,0 -2.69713,-0.1794 -3.8125,-0.6268 -1.33903,-0.5093 -1.87367,-1.4554 -2.1875,-2.6323 -0.008,-0.4679 0.3541,-0.915 0.8125,-1.0028 z m -14.125,15.6999 -11.78125,6.2674 c -2.4087,0.9621 -4.407,2.9736 -5.0625,6.0794 L 11,1047.3622 h 25.09375 l -4.8125,-12.0334 c -0.27145,-0.6682 -0.14667,-1.4815 0.3125,-2.0369 l 3.03125,-3.6351 -4.0625,-1.1595 c -0.92743,-0.2745 -1.56657,-1.3 -1.40625,-2.2563 z m 38.75,0.1254 1.53125,9.9338 c 0.15739,0.9643 -0.49876,1.9942 -1.4375,2.2563 l -4.03125,1.1595 3.03125,3.6351 c 0.45917,0.5554 0.58395,1.3687 0.3125,2.0369 l -4.8125,12.0334 H 89 l -2.5,-18.9276 c -1,-3.0083 -3.0081,-5.0174 -5.375,-5.8914 z m -23.34375,17.016 1.84375,14.039 h 4.09375 l 1.84375,-14.039 z"
       style="color:#000000;display:inline;overflow:visible;visibility:visible;fill:#000000;stroke:none;enable-background:accumulate"
       marker="none"
       visibility="visible"
       display="inline"
       overflow="visible"
       id="path2"
       inkscape:connector-curvature="0" />
  </g>
</svg>
