<svg height='300px' width='300px'  fill="#000000" xmlns="http://www.w3.org/2000/svg" xmlns:xlink="http://www.w3.org/1999/xlink" version="1.1" x="0px" y="0px" viewBox="0 0 55 55" style="enable-background:new 0 0 55 55;" xml:space="preserve"><g><path d="M42.5299988,2.5H12.4700012c-0.5500488,0-1,0.4499512-1,1v4.1999512c0,0.5500488,0.4499512,1,1,1h30.0599976   c0.5499878,0,1-0.4499512,1-1V3.5C43.5299988,2.9499512,43.0799866,2.5,42.5299988,2.5z"></path><path d="M14.1799622,37.3999023v6.8996582H40.809967v-6.8996582c0-0.3000488-0.1300049-0.5899658-0.3699951-0.7800293   L29.099823,27.5l11.3401489-9.1201172c0.2399902-0.1899414,0.3699951-0.4799805,0.3699951-0.7800293v-6.8999023H14.1799622   v6.8999023c0,0.3000488,0.1400146,0.5900879,0.3800049,0.7800293L25.900116,27.5L14.559967,36.619873   C14.3199768,36.8099365,14.1799622,37.0998535,14.1799622,37.3999023z"></path><path d="M42.5299988,46.2999268H12.4700012c-0.5500488,0-1,0.4500732-1,1V51.5c0,0.5499268,0.4499512,1,1,1h30.0599976   c0.5499878,0,1-0.4500732,1-1v-4.2000732C43.5299988,46.75,43.0799866,46.2999268,42.5299988,46.2999268z"></path></g></svg>