<?xml version="1.0" encoding="UTF-8" standalone="no"?>
<svg
   xmlns:dc="http://purl.org/dc/elements/1.1/"
   xmlns:cc="http://creativecommons.org/ns#"
   xmlns:rdf="http://www.w3.org/1999/02/22-rdf-syntax-ns#"
   xmlns:svg="http://www.w3.org/2000/svg"
   xmlns="http://www.w3.org/2000/svg"
   xmlns:sodipodi="http://sodipodi.sourceforge.net/DTD/sodipodi-0.dtd"
   xmlns:inkscape="http://www.inkscape.org/namespaces/inkscape"
   viewBox="0 0 96 96"
   x="0px"
   y="0px"
   version="1.1"
   id="svg28"
   sodipodi:docname="robot.svg"
   width="96"
   height="96"
   inkscape:version="0.92.4 (5da689c313, 2019-01-14)">
  <metadata
     id="metadata34">
    <rdf:RDF>
      <cc:Work
         rdf:about="">
        <dc:format>image/svg+xml</dc:format>
        <dc:type
           rdf:resource="http://purl.org/dc/dcmitype/StillImage" />
        <dc:title></dc:title>
      </cc:Work>
    </rdf:RDF>
  </metadata>
  <defs
     id="defs32" />
  <sodipodi:namedview
     pagecolor="#ffffff"
     bordercolor="#666666"
     borderopacity="1"
     objecttolerance="10"
     gridtolerance="10"
     guidetolerance="10"
     inkscape:pageopacity="0"
     inkscape:pageshadow="2"
     inkscape:window-width="1817"
     inkscape:window-height="1087"
     id="namedview30"
     showgrid="false"
     inkscape:zoom="2.95"
     inkscape:cx="36.067797"
     inkscape:cy="40"
     inkscape:window-x="0"
     inkscape:window-y="0"
     inkscape:window-maximized="0"
     inkscape:current-layer="svg28" />
  <g
     id="g47"
     transform="translate(-2.0000158,18)">
    <path
       style="stroke-width:1.62068963"
       inkscape:connector-curvature="0"
       id="path2"
       d="m 28.146636,10.956897 a 3.2527241,3.2527241 0 0 0 3.225173,2.836206 h 0.991862 c 3.084172,9.638242 9.808414,17.827587 17.636345,17.827587 7.827931,0 14.552172,-8.189345 17.636344,-17.827587 h 0.991863 a 3.2527241,3.2527241 0 0 0 3.225172,-2.836206 L 72.66374,4.4741379 A 3.2413793,3.2413793 0 0 0 69.438567,0.82758621 h -0.07455 C 68.571498,-11.280586 60.21036,-17 50.000016,-17 c -10.210345,0 -18.571483,5.719414 -19.364,17.82758621 h -0.07455 A 3.2413793,3.2413793 0 0 0 27.336291,4.4741379 Z m 8.22338,-18.2327591 h 3.905862 v -3.9123449 a 14.934655,14.934655 0 0 1 3.241379,-1.538034 v 5.4503789 h 4.862069 v -6.4179309 c 0.589931,-0.04214 1.144207,-0.06483 1.62069,-0.06483 0.476482,0 1.030758,0.02269 1.620689,0.06483 v 6.4179309 h 4.862069 v -5.4536209 a 14.994621,14.994621 0 0 1 3.24138,1.534793 v 3.9188279 h 3.918827 a 14.458172,14.458172 0 0 1 1.52669,3.2413793 H 34.840085 a 14.532724,14.532724 0 0 1 1.529931,-3.2413793 z m -2.534759,8.7063449 c 0.04052,-0.78441383 0.123172,-1.51696556 0.225276,-2.22358625 H 65.94274 c 0.09886,0.69203448 0.179896,1.40837931 0.220414,2.17496555 0.03079,0.4862069 0.04376,0.9286551 0.04376,1.3743448 A 32.963207,32.963207 0 0 1 64.830949,11.922828 C 62.046604,21.460586 55.81019,28.37931 50.000018,28.37931 c -5.810173,0 -12.046587,-6.918724 -14.829311,-16.45 A 32.985897,32.985897 0 0 1 33.793119,2.7562069 c 0,-0.4456897 0.01297,-0.893 0.04214,-1.3257241 z" />
    <polygon
       transform="matrix(1.6206897,0,0,1.6206897,-1.8620533,-21.862069)"
       id="polygon4"
       points="29.821,43.953 31.997,49.828 34.177,43.948 33,41 33.503,38.988 32,38.236 30.497,38.988 31,41 " />
    <path
       style="stroke-width:1.62068963"
       inkscape:connector-curvature="0"
       id="path6"
       d="m 30.59874,52.284483 -5.265621,-2.632 1.664448,-9.814897 a 101.18938,101.18938 0 0 1 -11.891,3.76 A 16.150172,16.150172 0 0 0 3.0000156,59.269655 V 77 H 43.280636 l 1.222,-3.294862 -17.973448,-15.625069 z" />
    <polygon
       transform="matrix(1.6206897,0,0,1.6206897,-1.8620533,-21.862069)"
       id="polygon8"
       points="32,36 36.323,38.161 38.29,32.855 " />
    <polygon
       transform="matrix(1.6206897,0,0,1.6206897,-1.8620533,-21.862069)"
       id="polygon10"
       points="25.707,32.854 26.284,34.4 27.677,38.162 32,36 " />
    <path
       style="stroke-width:1.62068963"
       inkscape:connector-curvature="0"
       id="path12"
       d="M 45.300016,55.542069 41.086223,44.181034 37.698981,35.024138 37.034498,33.241379 c -0.06483,0.09724 -0.145862,0.21069 -0.226896,0.324138 a 15.445172,15.445172 0 0 1 -5.947931,4.521724 c -0.08103,0.04862 -0.145862,0.08103 -0.194483,0.113449 -0.08103,0.04862 -0.113448,0.06483 -0.113448,0.06483 l -1.62069,9.562069 6.482759,3.24138 -4.554138,6.482758 14.847138,12.905552 2.559069,-6.899276 z" />
    <path
       style="stroke-width:1.62068963"
       inkscape:connector-curvature="0"
       id="path14"
       d="m 84.893464,43.597586 a 101.18938,101.18938 0 0 1 -11.891,-3.76 l 1.664448,9.814897 -5.265621,2.632 4.071173,5.795586 L 51.700119,77 H 97.000016 V 59.269655 A 16.150172,16.150172 0 0 0 84.893464,43.597586 Z" />
    <path
       style="stroke-width:1.62068963"
       inkscape:connector-curvature="0"
       id="path16"
       d="m 64.586223,51.068966 6.482758,-3.24138 -1.62069,-9.562069 c 0,0 -0.03241,-0.01621 -0.113448,-0.06483 A 1.2090345,1.2090345 0 0 1 69.14036,38.087241 24.127207,24.127207 0 0 1 66.255533,36.417931 C 65.980016,36.239655 65.704498,36.045172 65.461395,35.85069 a 6.8393103,6.8393103 0 0 1 -0.745517,-0.615862 4.3758621,4.3758621 0 0 1 -0.502414,-0.453794 6.3531034,6.3531034 0 0 1 -0.551035,-0.599655 3.8896552,3.8896552 0 0 1 -0.47,-0.615862 C 63.111395,33.452069 63.03036,33.338621 62.965533,33.241379 L 46.758636,77 69.14036,57.551724 Z" />
    <circle
       style="stroke-width:1.62068963"
       id="circle18"
       r="3.2413793"
       cy="5.6896553"
       cx="41.896568" />
    <circle
       style="stroke-width:1.62068963"
       id="circle20"
       r="3.2413793"
       cy="5.6896553"
       cx="58.103462" />
    <rect
       style="stroke-width:1.62068963"
       id="rect22"
       height="3.2413793"
       width="12.965517"
       y="17.034483"
       x="43.517258" />
  </g>
</svg>
